<svg width="36" height="26" viewBox="0 0 36 26" fill="none" xmlns="http://www.w3.org/2000/svg">
<g clip-path="url(#clip0_701_27)">
<path d="M29.3999 0.134094C31.5892 1.99645 33.7784 3.86025 35.9568 5.73492C33.8076 7.65604 31.5732 9.49231 29.3904 11.38C29.3955 10.1169 29.3824 8.85447 29.3949 7.59213C28.0102 7.5943 26.6255 7.58423 25.2415 7.59655C24.5762 7.598 23.9501 7.92844 23.5019 8.40526C19.5264 12.5198 15.5429 16.6272 11.5689 20.7432C11.1272 21.199 10.5114 21.4968 9.86791 21.491C7.33984 21.507 4.8109 21.4787 2.28356 21.5076C1.34409 21.4801 0.538129 20.6337 0.538858 19.704C0.492216 18.696 1.3857 17.8271 2.38121 17.7973C4.38901 17.7785 6.39898 17.8082 8.40678 17.7836C9.1392 17.7792 9.78417 17.3546 10.2462 16.8184C14.1612 12.7648 18.0806 8.71461 21.9978 4.66237C22.438 4.18482 23.0706 3.89061 23.7236 3.87612C25.614 3.86815 27.5052 3.88337 29.3949 3.8688C29.3911 2.624 29.3809 1.37912 29.3999 0.134094Z" fill="url(#paint0_linear_701_27)"/>
<path d="M1.94872 3.86748C4.68165 3.84494 7.42412 3.86965 10.1614 3.86168C10.8668 3.83052 11.5854 4.09357 12.0649 4.61749C13.2025 5.78135 14.3278 6.95891 15.4589 8.12915C15.9223 8.60017 16.1767 9.28569 16.0156 9.93933C15.84 10.7393 15.0697 11.3755 14.2403 11.3676C13.6771 11.393 13.1581 11.1075 12.7434 10.7531C11.968 9.93136 11.2246 9.07772 10.4369 8.26683C9.98579 7.8103 9.33717 7.58494 8.70022 7.59363C6.66036 7.58494 4.6205 7.59943 2.58057 7.58711C1.76871 7.56247 0.902917 7.18123 0.603388 6.37984C0.14207 5.35953 0.84753 4.06386 1.94872 3.86748Z" fill="#8C8C8C"/>
<path d="M18.6225 14.28C19.3272 13.7199 20.432 13.8011 21.0537 14.4481C21.9055 15.3162 22.7393 16.2025 23.592 17.0699C24.0351 17.5344 24.6735 17.7996 25.317 17.7931C26.6769 17.788 28.0368 17.7989 29.3975 17.7866C29.3836 16.5467 29.3924 15.3067 29.3946 14.0669C31.6006 15.9249 33.7898 17.8025 35.9755 19.6844C33.7928 21.5649 31.5983 23.4316 29.4003 25.294C29.3726 24.0258 29.4032 22.757 29.3865 21.4888C27.4939 21.4714 25.6013 21.4873 23.7086 21.4808C23.0564 21.475 22.4281 21.1656 21.9916 20.6902C20.7724 19.4388 19.5334 18.2069 18.3266 16.9446C17.6277 16.1859 17.7829 14.8735 18.6225 14.28Z" fill="#8C8C8C"/>
</g>
<defs>
<linearGradient id="paint0_linear_701_27" x1="18.247" y1="0.134094" x2="18.2182" y2="22.6374" gradientUnits="userSpaceOnUse">
<stop stop-color="#C12A23"/>
<stop offset="0.932655" stop-color="#102D71" stop-opacity="0.63"/>
<stop offset="0.9999" stop-color="#001AFF" stop-opacity="0.0260417"/>
<stop offset="1" stop-color="#0A3068" stop-opacity="0.66"/>
</linearGradient>
<clipPath id="clip0_701_27">
<rect x="0.435547" y="0.0645142" width="35.5645" height="25.2903" rx="5" fill="white"/>
</clipPath>
</defs>
</svg>
