<svg width="27" height="16" viewBox="0 0 27 16" fill="none" xmlns="http://www.w3.org/2000/svg">
<path d="M21.9892 0.044014C23.6512 1.22224 25.3133 2.40138 26.9671 3.5874C25.3355 4.8028 23.6391 5.96452 21.982 7.15874C21.9859 6.35966 21.9759 5.56099 21.9854 4.76236C20.9341 4.76374 19.8829 4.75737 18.8322 4.76516C18.3271 4.76608 17.8518 4.97513 17.5116 5.27679C14.4934 7.87984 11.4692 10.4784 8.45217 13.0824C8.11688 13.3708 7.64936 13.5592 7.16082 13.5555C5.24155 13.5656 3.32162 13.5477 1.4029 13.566C0.68967 13.5486 0.0778005 13.0131 0.0783538 12.4249C0.042944 11.7872 0.721263 11.2376 1.47704 11.2187C3.00132 11.2068 4.52727 11.2256 6.05155 11.21C6.60759 11.2072 7.09725 10.9386 7.44802 10.5994C10.4202 8.03485 13.3958 5.47251 16.3696 2.90884C16.7038 2.60672 17.1841 2.42059 17.6798 2.41142C19.115 2.40638 20.5508 2.416 21.9854 2.40679C21.9825 1.61926 21.9748 0.831682 21.9892 0.044014Z" fill="url(#paint0_linear_701_6)"/>
<path d="M1.14882 2.40596C3.22362 2.3917 5.30566 2.40734 7.38372 2.4023C7.9193 2.38258 8.46483 2.549 8.82889 2.88046C9.6925 3.61678 10.5468 4.36177 11.4055 5.10212C11.7573 5.40012 11.9505 5.83381 11.8282 6.24734C11.6949 6.75347 11.1101 7.15595 10.4804 7.15095C10.0528 7.16699 9.65881 6.98636 9.34399 6.76218C8.7553 6.2423 8.19096 5.70224 7.59292 5.18923C7.25044 4.9004 6.75802 4.75783 6.27445 4.76333C4.72583 4.75783 3.1772 4.76699 1.62852 4.7592C1.01217 4.74361 0.35487 4.50242 0.127473 3.99542C-0.222753 3.34992 0.312821 2.5302 1.14882 2.40596Z" fill="#8C8C8C"/>
<path d="M13.8073 8.99347C14.3423 8.63913 15.1811 8.69048 15.653 9.09983C16.2998 9.64906 16.9328 10.2097 17.5801 10.7585C17.9165 11.0524 18.4012 11.2202 18.8897 11.216C19.9221 11.2128 20.9545 11.2197 21.9875 11.2119C21.977 10.4275 21.9836 9.64305 21.9853 8.85868C23.6601 10.0342 25.3221 11.222 26.9814 12.4126C25.3243 13.6023 23.6584 14.7833 21.9897 15.9615C21.9686 15.1592 21.9919 14.3564 21.9792 13.5542C20.5423 13.5432 19.1055 13.5532 17.6686 13.5491C17.1734 13.5454 16.6965 13.3497 16.3651 13.0489C15.4395 12.2572 14.4989 11.4778 13.5827 10.6792C13.0521 10.1992 13.1699 9.36894 13.8073 8.99347Z" fill="#8C8C8C"/>
<defs>
<linearGradient id="paint0_linear_701_6" x1="13.5221" y1="0.044014" x2="13.5069" y2="14.2808" gradientUnits="userSpaceOnUse">
<stop stop-color="#C12A23"/>
<stop offset="0.932655" stop-color="#102D71" stop-opacity="0.63"/>
<stop offset="0.9999" stop-color="#001AFF" stop-opacity="0.0260417"/>
<stop offset="1" stop-color="#0A3068" stop-opacity="0.66"/>
</linearGradient>
</defs>
</svg>
